<?xml version="1.0" standalone="no"?>
<!DOCTYPE svg PUBLIC "-//W3C//DTD SVG 20010904//EN"
 "http://www.w3.org/TR/2001/REC-SVG-20010904/DTD/svg10.dtd">
<svg version="1.0" xmlns="http://www.w3.org/2000/svg"
 width="500.000000pt" height="500.000000pt" viewBox="0 0 500.000000 500.000000"
 preserveAspectRatio="xMidYMid meet">

<g transform="translate(0.000000,500.000000) scale(0.100000,-0.100000)"
fill="#000000" stroke="none">
<path d="M4370 3424 c-452 -38 -780 -113 -1096 -252 -78 -34 -106 -40 -190
-46 -343 -24 -574 -68 -951 -181 -185 -55 -367 -125 -528 -203 l-120 -59 70
-7 c100 -11 231 -41 326 -76 94 -34 99 -35 99 -16 0 20 75 101 139 150 121 92
248 153 439 211 112 34 401 99 409 92 1 -2 -43 -31 -99 -64 -144 -85 -344
-233 -449 -331 -49 -46 -89 -87 -89 -90 1 -4 9 -17 20 -30 l19 -23 103 79
c232 179 463 309 758 425 325 128 566 193 819 222 167 18 401 29 401 19 -1
-15 -228 -175 -371 -261 -225 -135 -569 -307 -584 -291 -3 3 13 36 35 74 22
38 40 72 40 75 0 4 -217 -80 -482 -186 -266 -106 -539 -215 -608 -241 l-124
-49 -64 -110 c-35 -60 -93 -154 -128 -207 -35 -54 -58 -98 -51 -98 6 0 147 67
312 148 248 123 365 185 590 310 20 12 -115 -135 -198 -215 -192 -184 -415
-343 -692 -492 -152 -83 -222 -128 -212 -138 5 -5 185 76 309 138 286 144 518
286 753 463 72 54 139 102 150 107 11 5 76 23 145 40 169 41 322 92 459 150
291 125 709 393 941 603 82 74 300 305 300 317 0 19 -480 53 -600 43z m67
-378 c-7 -21 -30 -48 -57 -69 -128 -97 -413 -268 -625 -374 -159 -80 -446
-194 -428 -171 73 95 74 96 182 139 224 89 588 283 813 434 62 41 116 75 120
75 4 0 2 -15 -5 -34z m-2097 -100 c-170 -65 -317 -153 -389 -231 -36 -39 -44
-44 -62 -35 -11 6 -56 19 -101 29 l-80 17 118 56 c145 68 313 130 454 168 140
38 164 36 60 -4z"/>
<path d="M1245 2089 c-484 -214 -939 -415 -1012 -446 -73 -32 -131 -59 -129
-60 2 -2 1566 529 1742 593 l71 25 99 126 c94 120 119 154 112 152 -2 0 -399
-175 -883 -390z"/>
</g>
</svg>
